USFL
nRows=285
nColumns=2
inDegrees=yes
endheader
time	tib_ant_r	
2.39501	 45.886498	
2.42827	 45.906071	
2.46154	 45.897548	
2.4948	 45.865350	
2.52806	 45.880310	
2.56133	 45.898133	
2.59459	 45.910585	
2.62786	 45.899490	
2.66112	 45.922871	
2.69438	 45.949737	
2.72765	 45.913014	
2.76091	 45.916471	
2.79418	 45.962066	
2.82744	 45.927319	
2.8607	 45.921328	
2.89397	 45.921780	
2.92723	 45.933562	
2.9605	 45.906313	
2.99376	 45.930260	
3.02702	 45.922103	
3.06029	 45.878807	
3.09355	 45.948726	
3.12682	 45.978987	
3.16008	 46.002422	
3.19334	 46.010650	
3.22661	 46.041406	
3.25987	 45.994946	
3.29314	 45.943600	
3.3264	 45.919247	
3.35966	 45.933767	
3.39293	 45.968079	
3.42619	 45.956071	
3.45946	 46.003458	
3.49272	 45.989453	
3.52598	 45.968979	
3.55925	 45.966685	
3.59251	 45.996643	
3.62578	 45.971057	
3.65904	 46.057254	
3.6923	 46.083860	
3.72557	 46.028770	
3.75883	 46.009935	
3.7921	 46.013083	
3.82536	 45.992527	
3.85862	 45.989615	
3.89189	 45.966050	
3.92515	 45.953130	
3.95842	 45.933642	
3.99168	 45.989020	
4.02494	 45.960841	
4.05821	 45.942499	
4.09147	 45.959971	
4.12474	 45.995685	
4.158	 46.022845	
4.19126	 45.992904	
4.22453	 45.951773	
4.25779	 45.964843	
4.29106	 45.977776	
4.32432	 45.992350	
4.35758	 45.992225	
4.39085	 45.988091	
4.42411	 46.029197	
4.45738	 45.948841	
4.49064	 45.781272	
4.5239	 45.452614	
4.55717	 45.188976	
4.59043	 44.873705	
4.6237	 44.671901	
4.65696	 44.479337	
4.69022	 38.272594	
4.72349	 38.268773	
4.75675	 38.102527	
4.79002	 37.770213	
4.82328	 35.257163	
4.85654	 35.076299	
4.88981	 34.821617	
4.92307	 34.693335	
4.95634	 34.433348	
4.9896	 34.332377	
5.02286	 34.255584	
5.05613	 34.142446	
5.08939	 34.097279	
5.12266	 33.872911	
5.15592	 33.691551	
5.18918	 33.560102	
5.22245	 33.446834	
5.25571	 33.336958	
5.28898	 33.183582	
5.32224	 33.157829	
5.3555	 33.117166	
5.38877	 33.216734	
5.42203	 33.335823	
5.4553	 33.391133	
5.48856	 33.426082	
5.52182	 33.599965	
5.55509	 33.726028	
5.58835	 33.860700	
5.62162	 33.901880	
5.65488	 33.877431	
5.68814	 33.830787	
5.72141	 33.869769	
5.75467	 33.850939	
5.78794	 33.745042	
5.8212	 33.761740	
5.85446	 33.702290	
5.88773	 33.797362	
5.92099	 33.832384	
5.95426	 33.777181	
5.98752	 33.789092	
6.02078	 33.806714	
6.05405	 33.664964	
6.08731	 33.557153	
6.12058	 33.748570	
6.15384	 33.718738	
6.1871	 33.781662	
6.22037	 33.779473	
6.25363	 33.764098	
6.2869	 33.726198	
6.32016	 33.706300	
6.35342	 33.820583	
6.38669	 33.870728	
6.41995	 33.683263	
6.45322	 33.534616	
6.48648	 33.447239	
6.51974	 33.335983	
6.55301	 33.444830	
6.58627	 33.455997	
6.61954	 30.394838	
6.6528	 30.285942	
6.68606	 30.155140	
6.71933	 30.075561	
6.75259	 30.120062	
6.78586	 29.996316	
6.81912	 29.966154	
6.85238	 29.752263	
6.88565	 29.702781	
6.91891	 29.766545	
6.95218	 29.740391	
6.98544	 29.687585	
7.0187	 29.596328	
7.05197	 29.519548	
7.08523	 29.433172	
7.1185	 29.349218	
7.15176	 29.224486	
7.18502	 29.209216	
7.21829	 29.160671	
7.25155	 29.281032	
7.28482	 29.316739	
7.31808	 29.352687	
7.35134	 29.299749	
7.38461	 29.340414	
7.41787	 29.296533	
7.45114	 29.315199	
7.4844	 29.357707	
7.51766	 29.356033	
7.55093	 29.402987	
7.58419	 29.441137	
7.61746	 29.517945	
7.65072	 29.486198	
7.68398	 29.414644	
7.71725	 29.375575	
7.75051	 29.349809	
7.78378	 29.406696	
7.81704	 29.464070	
7.8503	 29.403220	
7.88357	 29.362444	
7.91683	 29.402943	
7.9501	 29.450896	
7.98336	 29.309154	
8.01662	 29.322587	
8.04989	 29.334855	
8.08315	 29.275613	
8.11642	 29.339389	
8.14968	 29.472032	
8.18294	 29.459739	
8.21621	 29.416822	
8.24947	 29.343807	
8.28274	 29.305767	
8.316	 29.348298	
8.34926	 29.355500	
8.38253	 29.436720	
8.41579	 29.407159	
8.44906	 29.442333	
8.48232	 29.369788	
8.51558	 29.233589	
8.54885	 29.231894	
8.58211	 29.146398	
8.61538	 29.086887	
8.64864	 29.018108	
8.6819	 29.050611	
8.71517	 29.047742	
8.74843	 29.027192	
8.7817	 29.010249	
8.81496	 28.974750	
8.84822	 28.981635	
8.88149	 28.998018	
8.91475	 28.984882	
8.94802	 29.005166	
8.98128	 29.048915	
9.01454	 29.111973	
9.04781	 29.244614	
9.08107	 29.455044	
9.11434	 29.465495	
9.1476	 29.454557	
9.18086	 29.373978	
9.21413	 29.441013	
9.24739	 29.349092	
9.28066	 29.442890	
9.31392	 29.416955	
9.34718	 29.475801	
9.38045	 29.323456	
9.41371	 29.234231	
9.44698	 29.023254	
9.48024	 29.086519	
9.5135	 29.086700	
9.54677	 29.199715	
9.58003	 29.283338	
9.6133	 31.790587	
9.64656	 31.320179	
9.67982	 31.793505	
9.71309	 31.485210	
9.74635	 31.326012	
9.77962	 31.361859	
9.81288	 31.586828	
9.84614	 31.725898	
9.87941	 31.864136	
9.91267	 32.049757	
9.94594	 31.968738	
9.9792	 31.997991	
10.0125	 31.930315	
10.0457	 31.802166	
10.079	 31.873336	
10.1123	 35.194335	
10.1455	 35.144813	
10.1788	 35.064045	
10.212	 34.989006	
10.2453	 35.220211	
10.2786	 35.710851	
10.3118	 35.855707	
10.3451	 38.648831	
10.3784	 38.729020	
10.4116	 38.627455	
10.4449	 38.635143	
10.4782	 38.785701	
10.5114	 38.819965	
10.5447	 38.603115	
10.578	 38.432515	
10.6112	 38.437798	
10.6445	 38.435013	
10.6777	 38.741766	
10.711	 38.825323	
10.7443	 38.830692	
10.7775	 38.897829	
10.8108	 39.026032	
10.8441	 39.180169	
10.8773	 39.265921	
10.9106	 39.544665	
10.9439	 39.769536	
10.9771	 40.137561	
11.0104	 40.298097	
11.0436	 40.359971	
11.0769	 40.544696	
11.1102	 40.517359	
11.1434	 40.649623	
11.1767	 40.801980	
11.21	 40.794773	
11.2432	 40.818690	
11.2765	 40.966581	
11.3098	 41.065810	
11.343	 41.069815	
11.3763	 41.110358	
11.4096	 41.174454	
11.4428	 41.518846	
11.4761	 41.660432	
11.5093	 41.570222	
11.5426	 41.442374	
11.5759	 41.512192	
11.6091	 41.568456	
11.6424	 41.924139	
11.6757	 42.257770	
11.7089	 42.531981	
11.7422	 42.465862	
11.7755	 42.567291	
11.8087	 42.495682	
11.842	 42.568373	
